<svg width="800" height="1100" viewBox="0 0 800 1100" xmlns="http://www.w3.org/2000/svg">
  <defs>
    <linearGradient id="bg" x1="0" y1="0" x2="0" y2="1">
      <stop offset="0%" stop-color="#f8fbff"/>
      <stop offset="100%" stop-color="#ecf2fb"/>
    </linearGradient>
    <linearGradient id="outerWall" x1="0" y1="0" x2="0" y2="1">
      <stop offset="0%" stop-color="#fdfefe" stop-opacity="0.96"/>
      <stop offset="55%" stop-color="#e4ecf8" stop-opacity="0.78"/>
      <stop offset="100%" stop-color="#cfdbeb" stop-opacity="0.82"/>
    </linearGradient>
    <linearGradient id="innerWall" x1="0" y1="0" x2="0" y2="1">
      <stop offset="0%" stop-color="#f6faff" stop-opacity="0.55"/>
      <stop offset="100%" stop-color="#dce8f8" stop-opacity="0.24"/>
    </linearGradient>
    <linearGradient id="highlight" x1="0" y1="0" x2="1" y2="0">
      <stop offset="0%" stop-color="#ffffff" stop-opacity="0.52"/>
      <stop offset="100%" stop-color="#ffffff" stop-opacity="0"/>
    </linearGradient>
    <filter id="drop" x="-20%" y="-20%" width="140%" height="140%">
      <feDropShadow dx="0" dy="18" stdDeviation="16" flood-color="#8aa2c4" flood-opacity="0.32"/>
    </filter>
  </defs>

  <rect width="800" height="1100" fill="url(#bg)"/>
  <ellipse cx="400" cy="1038" rx="230" ry="34" fill="#b7c9e2" opacity="0.3"/>

  <g filter="url(#drop)">
    <!-- Outer bucket -->
    <path d="M196 214 L604 214 L552 946 Q400 1033 248 946 Z" fill="url(#outerWall)" stroke="#9bb0cd" stroke-width="8"/>

    <!-- Inner cavity -->
    <path d="M240 262 L560 262 L520 908 Q400 970 280 908 Z" fill="url(#innerWall)" stroke="#bccbe0" stroke-width="4"/>

    <!-- Top rim -->
    <ellipse cx="400" cy="214" rx="222" ry="55" fill="#f9fcff" stroke="#98aecb" stroke-width="8"/>
    <ellipse cx="400" cy="222" rx="196" ry="39" fill="#eef5ff" stroke="#c1d0e3" stroke-width="3"/>

    <!-- Side highlights -->
    <path d="M255 286 L292 892" stroke="url(#highlight)" stroke-width="8" stroke-linecap="round" opacity="0.9"/>
    <path d="M545 286 L508 892" stroke="url(#highlight)" stroke-width="8" stroke-linecap="round" opacity="0.55"/>
  </g>

  <!-- Capacity split lines -->
  <g stroke="#afc0d9" stroke-width="2.5" opacity="0.8">
    <line x1="268" y1="322" x2="532" y2="322"/>
    <line x1="264" y1="387" x2="536" y2="387"/>
    <line x1="260" y1="452" x2="540" y2="452"/>
    <line x1="256" y1="517" x2="544" y2="517"/>
    <line x1="252" y1="582" x2="548" y2="582"/>
    <line x1="248" y1="647" x2="552" y2="647"/>
    <line x1="244" y1="712" x2="556" y2="712"/>
    <line x1="240" y1="777" x2="560" y2="777"/>
    <line x1="236" y1="842" x2="564" y2="842"/>
    <line x1="232" y1="907" x2="568" y2="907"/>
  </g>

  <!-- Scale labels -->
  <g fill="#6b7f9c" font-size="24" font-family="Inter, Arial, sans-serif" font-weight="600" opacity="0.92">
    <text x="612" y="328">1</text>
    <text x="612" y="393">2</text>
    <text x="612" y="458">3</text>
    <text x="612" y="523">4</text>
    <text x="612" y="588">5</text>
    <text x="612" y="653">6</text>
    <text x="612" y="718">7</text>
    <text x="612" y="783">8</text>
    <text x="612" y="848">9</text>
    <text x="598" y="913">10</text>
  </g>

  <!-- Max fill indicator -->
  <line x1="226" y1="350" x2="574" y2="350" stroke="#e24656" stroke-width="6" stroke-linecap="round" opacity="0.9"/>
  <rect x="558" y="324" width="198" height="48" rx="24" fill="#fff4f6" stroke="#f2a3ae" stroke-width="2"/>
  <text x="657" y="358" text-anchor="middle" fill="#cb3444" font-size="26" font-family="Inter, Arial, sans-serif" font-weight="700">MAX FILL</text>
</svg>
