<svg width="800" height="1100" viewBox="0 0 800 1100" xmlns="http://www.w3.org/2000/svg">
  <defs>
    <linearGradient id="bg" x1="0" y1="0" x2="0" y2="1">
      <stop offset="0%" stop-color="#f9fbff"/>
      <stop offset="100%" stop-color="#e9eef7"/>
    </linearGradient>
    <linearGradient id="bucketOuter" x1="0" y1="0" x2="0" y2="1">
      <stop offset="0%" stop-color="#ffffff" stop-opacity="0.92"/>
      <stop offset="55%" stop-color="#dce5f3" stop-opacity="0.78"/>
      <stop offset="100%" stop-color="#c5d1e5" stop-opacity="0.82"/>
    </linearGradient>
    <linearGradient id="bucketInner" x1="0" y1="0" x2="0" y2="1">
      <stop offset="0%" stop-color="#f5f9ff" stop-opacity="0.5"/>
      <stop offset="100%" stop-color="#d9e5f7" stop-opacity="0.22"/>
    </linearGradient>
    <filter id="shadow" x="-20%" y="-20%" width="140%" height="140%">
      <feDropShadow dx="0" dy="20" stdDeviation="18" flood-color="#8ea3c2" flood-opacity="0.35"/>
    </filter>
  </defs>

  <rect width="800" height="1100" fill="url(#bg)"/>
  <ellipse cx="400" cy="1025" rx="220" ry="36" fill="#b7c6dd" opacity="0.35"/>

  <g filter="url(#shadow)">
    <path d="M210 210 L590 210 L545 940 Q400 1030 255 940 Z" fill="url(#bucketOuter)" stroke="#9fb1cc" stroke-width="8"/>
    <path d="M245 255 L555 255 L518 905 Q400 970 282 905 Z" fill="url(#bucketInner)" stroke="#b9c8de" stroke-width="4"/>
    <ellipse cx="400" cy="210" rx="210" ry="52" fill="#f8fbff" stroke="#9cb0cc" stroke-width="8"/>
    <ellipse cx="400" cy="218" rx="188" ry="36" fill="#edf4ff" stroke="#c0cee0" stroke-width="3"/>
  </g>

  <g stroke="#aebfda" stroke-width="2.6" opacity="0.78">
    <line x1="278" y1="318" x2="522" y2="318"/>
    <line x1="274" y1="384" x2="526" y2="384"/>
    <line x1="270" y1="450" x2="530" y2="450"/>
    <line x1="266" y1="516" x2="534" y2="516"/>
    <line x1="262" y1="582" x2="538" y2="582"/>
    <line x1="258" y1="648" x2="542" y2="648"/>
    <line x1="254" y1="714" x2="546" y2="714"/>
    <line x1="250" y1="780" x2="550" y2="780"/>
    <line x1="246" y1="846" x2="554" y2="846"/>
    <line x1="242" y1="912" x2="558" y2="912"/>
  </g>

  <g fill="#6a7d99" font-size="25" font-family="Inter, Arial, sans-serif" font-weight="600" opacity="0.9">
    <text x="565" y="324">1</text>
    <text x="570" y="390">2</text>
    <text x="570" y="456">3</text>
    <text x="570" y="522">4</text>
    <text x="570" y="588">5</text>
    <text x="570" y="654">6</text>
    <text x="570" y="720">7</text>
    <text x="570" y="786">8</text>
    <text x="570" y="852">9</text>
    <text x="558" y="918">10</text>
  </g>

  <line x1="236" y1="350" x2="562" y2="350" stroke="#e63946" stroke-width="6" stroke-linecap="round"/>
  <rect x="562" y="334" width="136" height="30" rx="15" fill="#fff4f5" stroke="#f29ca3" stroke-width="2"/>
  <text x="630" y="355" text-anchor="middle" fill="#cc2f3c" font-size="16" font-family="Inter, Arial, sans-serif" font-weight="700">MAX FILL</text>
</svg>
